<?xml version="1.0" encoding="UTF-8"?>
<svg id="Layer_2" data-name="Layer 2" xmlns="http://www.w3.org/2000/svg" viewBox="0 0 156.25 82.48">
  <defs>
    <style>
      .cls-1 {
        font-family: IRANSans, IRANSans;
        font-size: 43.2px;
      }

      .cls-1, .cls-2 {
        fill: #0f1916;
      }
    </style>
  </defs>
  <g id="Logo">
    <g>
      <g>
        <rect class="cls-2" x="95.69" y="23.31" width="7.6" height="7.55"/>
        <rect class="cls-2" x="90.52" y="33.01" width="7.6" height="7.55"/>
        <rect class="cls-2" x="100.8" y="33.01" width="7.6" height="7.55"/>
        <path class="cls-2" d="M143.21,46.97l-6.18,4.36,4.38,7.8c.79,1.38,1.18,2.61,1.18,3.7,0,2.62-1.79,3.94-5.35,3.94h-8.94c-4.94,0-7.41-3.17-7.41-9.51v-7.98h-6.89v12.96c0,3.32-1.29,4.97-3.87,4.97-5.23,0-7.84-4.75-7.84-14.24v-3.69h-6.89v12.94c0,3.32-1.19,4.99-3.59,4.99-4.94,0-7.41-4.75-7.41-14.24v-3.69h-6.93v12.94c0,3.04-1.67,4.55-5.02,4.55h-4.59c-3.25,0-5.82-.56-7.7-1.68-2.81-1.66-5.5-4.99-8.08-9.98l-8.12-15.64c-.89-1.72-1.34-2.99-1.34-3.82,0-1.02,1.05-1.83,3.16-2.43l25.81-7.49-2.67-6.39-26.01,7.7c-5.07,1.5-7.6,4.32-7.6,8.46,0,1.69,.51,3.52,1.53,5.5l8.42,16.24c1.24,2.4,1.86,4.3,1.86,5.7,0,2.55-2.23,3.83-6.69,3.83h-7.6c-1.65,0-3.34-.29-4.82-.7-1.99-.55-2.95-.93-3.86-2.16-.97-2.24-2.58-5.88-3.08-7.5-.7-1.93-1.52-3.81-2.67-5.53-.55-.82-1.13-1.6-1.72-2.43-.07,.08-.11,.11-.13,.14-.65,1.13-1.34,2.25-1.93,3.41-.66,1.3-.9,2.71-.63,4.15,.17,.9,.39,1.8,.7,2.65,1.57,4.34,1.84,6.79,3.3,8.89,3.17,5.02,7.98,7.53,14.45,7.53h7.6c6.95,0,11.44-2.26,13.48-6.79,1.31,1.93,3.24,3.54,5.81,4.84,2.57,1.3,5.03,1.95,7.39,1.95h6.22c4.21,0,7.24-1.86,9.08-5.59,2.07,3.98,5.37,5.98,9.9,5.98,3.51,0,6.41-1.99,8.7-5.98,1.98,3.98,5.05,5.98,9.23,5.98,3.89,0,6.96-1.99,9.23-5.98,.86,1.69,2.34,3.06,4.45,4.11,1.94,.99,3.94,1.48,5.98,1.48h7.89c4.27,0,7.55-1.37,9.85-4.12,1.85-2.24,2.77-4.87,2.77-7.91,0-1.92-.73-4.46-2.2-7.62-.57-1.24-2.1-4.11-4.59-8.61Z"/>
        <rect class="cls-2" x="142.59" y="33.3" width="7.41" height="7.51"/>
        <rect class="cls-2" x="132.17" y="33.3" width="7.6" height="7.51"/>
        <path class="cls-2" d="M7.4,48.44c.98-2.09,2.19-3.99,3.54-5.81,.04-.06,.01-.22-.04-.29-.24-.31-.5-.59-.76-.89-.84-.98-1.74-1.92-2.36-3.08-.62-1.17-.87-2.38-.14-3.6,.56-.94,1.38-1.62,2.39-2.05,1.16-.49,2.25-.21,3.27,.43,1.13,.7,2.09,1.61,2.99,2.58,1.46,1.58,2.88,3.2,4.32,4.8,.1,.11,.21,.22,.34,.36,.96-2.16,1.34-4.33,.91-6.6-.41-2.17-1.47-4.01-2.87-5.68-3.37-4.02-8.19-4.99-12.45-2.98-3.26,1.54-5.4,4.08-6.24,7.6-.82,3.42-.02,6.57,1.87,9.48,1.16,1.79,2.68,3.28,4.2,4.76,.33,.32,.66,.63,1.02,.97Z"/>
        <path class="cls-2" d="M15.86,36.14c-.83-.92-1.69-1.81-2.76-2.47-.95-.59-1.95-.81-3.01-.3-.64,.31-1.16,.78-1.6,1.33-.64,.8-.78,1.69-.4,2.65,.36,.93,.95,1.71,1.6,2.43,1.88,2.09,3.76,4.17,5.7,6.2,2.42,2.53,4.38,5.36,5.67,8.62,1.13,2.87,2.17,5.78,3.25,8.67,.12,.32,.23,.64,.36,.98,.07-.04,.13-.07,.19-.1,.87-.58,1.61-1.3,2.14-2.2,2.14-3.59,2.13-7.34,.69-11.15-.74-1.96-2-3.63-3.36-5.2-1.28-1.47-2.63-2.87-3.93-4.32-1.52-1.7-3-3.44-4.52-5.13Z"/>
        <path class="cls-2" d="M13.84,58.54c-.94-2.64-.81-5.23,.52-7.72,.53-1,1.14-1.96,1.74-2.98-1.48-1.61-2.98-3.24-4.54-4.95-.74,1.12-1.46,2.15-2.11,3.22-1.35,2.24-2.47,4.59-3.02,7.17-.41,1.92-.44,3.85,.08,5.75,.38,1.38,1.05,2.62,2.03,3.67,2.13,2.3,4.72,3.76,7.83,4.23,.16,.02,.33,.02,.53,.03-.06-.17-.11-.29-.15-.41-.97-2.67-1.95-5.35-2.91-8.02Z"/>
      </g>
      <text class="cls-1" transform="translate(129.9 45.86)"><tspan x="0" y="0">ُ</tspan></text>
    </g>
  </g>
</svg>