<?xml version="1.0" encoding="UTF-8"?>
<svg id="Layer_2" data-name="Layer 2" xmlns="http://www.w3.org/2000/svg" viewBox="0 0 65.26 64.47">
  <defs>
    <style>
      .cls-1 {
        fill: #0f1916;
      }
    </style>
  </defs>
  <g id="Layer_3" data-name="Layer 3">
    <path class="cls-1" d="M32.3,.14C15.41-1.72,.42,15.5,.01,30.58c-.55,20.27,15.41,33.78,32.6,33.88,18.49,.11,32.47-15.33,32.64-32.1C65.45,12.86,48.91-1.34,32.3,.14Zm16.83,51.96c-.21,1.13-1.17,2.36-2.14,3.08-7.36,5.43-19.43,5.68-27.44,1.2-4.87-2.73-3.65-7.06-3.02-10.69,.66-3.79,3.64-6.55,7.93-6.87,2.81-.21,5.65-.04,8.47-.04,1.83,0,3.69,.22,5.48-.05,7.21-1.08,12.02,6.43,10.72,13.37ZM25.24,25.74c.06-3.31,4.41-7.57,7.63-7.47,3.34,.1,7.41,4.42,7.36,7.8-.07,4.41-3.47,7.85-7.66,7.75-4.17-.1-7.41-3.67-7.33-8.08Zm29.7,22.05c-1.19-2.78-1.91-5.9-3.69-8.23-1.81-2.36-4.66-3.94-7.59-6.29,2.34-5.88,2.9-11.95-2.53-16.73-4.03-3.54-11.58-3.74-16.12-.38-6.35,4.69-5.47,11.11-3.04,17.68-6.17,3.01-11.16,6.76-10.79,14.43-7.59-6.72-8.87-23.79,.12-33.71C21.34,3.45,35.24,1.21,46.98,8.54c13.04,8.13,18.21,25.61,7.96,39.25Z"/>
  </g>
</svg>