<?xml version="1.0" encoding="UTF-8"?>
<svg id="Layer_2" data-name="Layer 2" xmlns="http://www.w3.org/2000/svg" viewBox="0 0 178.12 170">
  <defs>
    <style>
      .cls-1 {
        fill: #0f1916;
      }
    </style>
  </defs>
  <g id="Layer_5" data-name="Layer 5">
    <g>
      <path class="cls-1" d="M169.01,30.78c-34.32,.29-68.64,.11-102.96,.11-7.15,0-14.3,0-21.99,0-1.13-6.94-1.82-13.48-3.38-19.81-.8-3.24-2.8-8.43-4.86-8.74C25.59,.8,15.17,.43,4.8,0,1.53-.13,.04,2.34,0,5.63c-.04,3.45,1.27,5.81,4.92,6.09,5.76,.44,11.54,1.07,17.3,.92,4.52-.12,7.31,.6,7.27,5.9-.02,2.22,1.08,4.42,1.48,6.66,4.39,24.76,8.56,49.57,13.3,74.27,.74,3.88,.23,6.58-1.85,9.49-4.34,6.1-4.44,12.43-.85,18.89,3.43,6.18,8.63,8.99,15.78,8.96,29.82-.12,59.64-.05,89.46-.05,3.83,0,7.67,.12,11.49-.03,5.04-.21,7.67-3.44,6.51-8.24-1.03-4.25-4.59-4.6-8.22-4.59-29.49,.02-58.98-.02-88.47,.05-3.1,0-6.22,.97-9.28,.77-2.27-.15-4.88-.98-6.53-2.43-1.07-.95-1.57-4.44-.77-5.22,1.66-1.65,4.34-3.15,6.61-3.17,32.82-.2,65.64-.13,98.46-.14,6.74,0,8.18-1.26,9.27-8,1.04-6.45,2-12.92,3.22-19.34,2.85-15.07,6.06-30.08,8.64-45.19,1.06-6.19,.46-10.52-8.73-10.44Zm-14.13,67.32c-.27,1.43-2.25,3.62-3.45,3.63-31.29,.2-62.58,.16-94.28,.16-3.59-19.58-7.14-38.94-10.78-58.77h118.31c-3.24,18.39-6.4,36.71-9.8,54.99Z"/>
      <path class="cls-1" d="M71.54,141.89c-8.66-.95-14.68,5.79-14.54,14.07,.14,8.32,5.74,13.61,14.37,13.84,7.73,.21,14.46-5.82,14.34-14.22-.11-7.67-6.97-15.22-14.17-13.69Z"/>
      <path class="cls-1" d="M134.74,141.89c-9.48,0-14.25,4.89-14.85,13.71-.54,7.92,6.88,14.37,14.04,14.4,7.8,.03,14.48-7.15,14.09-13.86-.52-8.87-5.04-14.24-13.28-14.25Z"/>
    </g>
  </g>
</svg>