<?xml version="1.0" encoding="UTF-8"?>
<svg id="Layer_5" data-name="Layer 5" xmlns="http://www.w3.org/2000/svg" viewBox="0 0 312.5 164.95">
  <defs>
    <style>
      .cls-1 {
        font-family: IRANSans, IRANSans;
        font-size: 86.4px;
      }

      .cls-1, .cls-2 {
        fill: #0f1916;
      }
    </style>
  </defs>
  <g>
    <rect class="cls-2" x="191.37" y="46.61" width="15.2" height="15.11"/>
    <rect class="cls-2" x="181.04" y="66.02" width="15.2" height="15.11"/>
    <rect class="cls-2" x="201.6" y="66.02" width="15.2" height="15.11"/>
    <path class="cls-2" d="M286.42,93.95l-12.36,8.72,8.76,15.6c1.58,2.75,2.37,5.22,2.37,7.39,0,5.25-3.57,7.87-10.71,7.87h-17.88c-9.88,0-14.82-6.34-14.82-19.03v-15.97h-13.77v25.91c0,6.63-2.58,9.94-7.75,9.94-10.46,0-15.68-9.49-15.68-28.48v-7.38h-13.77v25.89c0,6.65-2.39,9.97-7.17,9.97-9.88,0-14.82-9.49-14.82-28.48v-7.38h-13.86v25.89c0,6.07-3.35,9.11-10.04,9.11h-9.18c-6.51,0-11.64-1.12-15.4-3.36-5.61-3.33-11-9.98-16.17-19.96l-16.24-31.28c-1.79-3.44-2.68-5.98-2.68-7.64,0-2.03,2.11-3.66,6.32-4.87l51.62-14.98-5.34-12.78-52.02,15.4c-10.14,3-15.2,8.64-15.2,16.93,0,3.38,1.02,7.04,3.06,11l16.83,32.48c2.49,4.79,3.73,8.59,3.73,11.4,0,5.11-4.46,7.66-13.39,7.66h-15.21c-3.29,0-6.67-.58-9.65-1.41-3.98-1.11-5.89-1.87-7.72-4.32-1.94-4.49-5.15-11.75-6.17-14.99-1.41-3.87-3.05-7.63-5.35-11.06-1.09-1.63-2.27-3.21-3.44-4.86-.14,.16-.22,.21-.26,.28-1.3,2.27-2.68,4.49-3.86,6.82-1.32,2.6-1.8,5.41-1.26,8.29,.34,1.8,.79,3.59,1.41,5.31,3.13,8.69,3.68,13.59,6.61,17.79,6.33,10.04,15.96,15.07,28.9,15.07h15.2c13.9,0,22.89-4.53,26.97-13.58,2.61,3.85,6.49,7.08,11.62,9.68,5.13,2.6,10.06,3.9,14.77,3.9h12.43c8.42,0,14.47-3.73,18.17-11.19,4.14,7.97,10.74,11.95,19.79,11.95,7.01,0,12.81-3.98,17.4-11.95,3.95,7.97,10.1,11.95,18.46,11.95,7.78,0,13.93-3.98,18.46-11.95,1.72,3.38,4.69,6.12,8.89,8.22,3.89,1.98,7.87,2.96,11.95,2.96h15.78c8.54,0,15.11-2.75,19.7-8.24,3.7-4.47,5.55-9.75,5.55-15.82,0-3.83-1.47-8.91-4.4-15.24-1.15-2.49-4.21-8.22-9.18-17.21Z"/>
    <rect class="cls-2" x="285.18" y="66.6" width="14.82" height="15.01"/>
    <rect class="cls-2" x="264.33" y="66.6" width="15.2" height="15.01"/>
    <path class="cls-2" d="M14.81,96.88c1.96-4.18,4.38-7.98,7.08-11.62,.08-.11,.03-.44-.08-.57-.48-.61-1.01-1.19-1.51-1.78-1.68-1.97-3.49-3.84-4.71-6.15-1.25-2.35-1.73-4.76-.27-7.2,1.13-1.89,2.77-3.24,4.78-4.09,2.33-.99,4.5-.41,6.55,.86,2.26,1.4,4.19,3.22,5.98,5.15,2.93,3.16,5.77,6.4,8.65,9.61,.2,.23,.41,.44,.68,.72,1.92-4.32,2.68-8.65,1.82-13.21-.83-4.33-2.94-8.02-5.73-11.36-6.74-8.03-16.39-9.98-24.9-5.97-6.53,3.08-10.8,8.15-12.48,15.19-1.63,6.84-.05,13.14,3.73,18.96,2.33,3.58,5.36,6.55,8.41,9.51,.65,.64,1.32,1.27,2.03,1.95Z"/>
    <path class="cls-2" d="M31.73,72.28c-1.66-1.84-3.38-3.62-5.52-4.94-1.9-1.17-3.9-1.62-6.01-.61-1.28,.61-2.32,1.55-3.2,2.66-1.27,1.61-1.56,3.37-.81,5.3,.72,1.85,1.9,3.42,3.2,4.86,3.75,4.17,7.52,8.34,11.39,12.4,4.84,5.07,8.76,10.73,11.33,17.25,2.26,5.74,4.34,11.55,6.49,17.33,.24,.64,.47,1.29,.71,1.96,.14-.08,.26-.13,.37-.21,1.74-1.16,3.22-2.61,4.29-4.4,4.28-7.18,4.26-14.69,1.38-22.29-1.48-3.92-4-7.26-6.73-10.41-2.55-2.94-5.27-5.74-7.86-8.64-3.04-3.4-5.99-6.87-9.04-10.26Z"/>
    <path class="cls-2" d="M27.69,117.09c-1.89-5.29-1.62-10.46,1.03-15.44,1.07-2,2.28-3.92,3.47-5.96-2.96-3.22-5.96-6.49-9.09-9.89-1.47,2.24-2.93,4.29-4.22,6.45-2.69,4.48-4.94,9.17-6.04,14.33-.82,3.85-.88,7.69,.17,11.51,.76,2.77,2.11,5.24,4.05,7.34,4.25,4.59,9.43,7.51,15.66,8.46,.32,.05,.66,.04,1.07,.07-.13-.35-.21-.58-.3-.82-1.94-5.35-3.9-10.69-5.82-16.05Z"/>
  </g>
  <text class="cls-1" transform="translate(259.8 91.72)"><tspan x="0" y="0">ُ</tspan></text>
</svg>